<?xml version="1.0" encoding="UTF-8"?>
<svg version="1.1" xmlns="http://www.w3.org/2000/svg" width="120" height="128">
<path d="M0 0 C39.6 0 79.2 0 120 0 C120 42.24 120 84.48 120 128 C80.4 128 40.8 128 0 128 C0 85.76 0 43.52 0 0 Z " fill="#EDECEC" transform="translate(0,0)"/>
<path d="M0 0 C0.88522339 -0.0127597 1.77044678 -0.02551941 2.68249512 -0.03866577 C4.11679871 -0.04200424 4.11679871 -0.04200424 5.58007812 -0.04541016 C6.57076294 -0.05206696 7.56144775 -0.05872375 8.58215332 -0.06558228 C10.68365625 -0.07571622 12.78519141 -0.08039907 14.88671875 -0.08007812 C18.07152075 -0.08441841 21.25489943 -0.12063886 24.43945312 -0.15869141 C26.48632342 -0.1645663 28.53320026 -0.16853119 30.58007812 -0.17041016 C31.99009094 -0.19196671 31.99009094 -0.19196671 33.42858887 -0.21395874 C45.11301727 -0.13498894 54.056772 4.18753772 62.48242188 12.03271484 C69.46497283 19.27054186 72.84097454 27.64477729 73.29882812 37.66552734 C72.94488164 47.51535232 69.30430216 57.61777076 62.38085938 64.83349609 C52.64773615 72.84774546 43.12080262 75.43047195 30.73681641 74.57177734 C22.68266995 73.50603226 15.89275522 68.73024338 11.01367188 62.40771484 C5.81321255 54.556325 4.52141817 47.72111666 5.61132812 38.29052734 C7.36285435 30.05487425 11.80972963 25.06357892 18.61132812 20.29052734 C24.18913161 17.5016256 30.21249152 17.43441013 36.20117188 18.94287109 C43.89041485 21.63699683 47.59922022 25.66873311 51.48632812 32.66552734 C53.48652251 39.11059813 53.37474379 45.12076797 50.71679688 51.37255859 C47.27162341 57.34987369 42.23255056 61.38271749 35.61132812 63.29052734 C32.25993069 63.50674653 28.96335438 63.47262937 25.61132812 63.29052734 C25.61132812 64.28052734 25.61132812 65.27052734 25.61132812 66.29052734 C35.75837183 65.00523514 43.8478159 63.50630465 50.35742188 55.13427734 C54.49467049 49.05084636 55.54389788 43.47238635 54.61132812 36.29052734 C52.77429871 28.54958578 49.14998459 23.74027465 42.61132812 19.29052734 C36.28085165 15.65636492 30.30561561 15.42783544 23.25195312 16.72412109 C16.50570151 18.59678749 11.07624341 22.47204586 7.25976562 28.38427734 C4.64973401 33.41656851 3.50251862 37.83760125 3.40600586 43.51806641 C3.38606064 44.55884338 3.36611542 45.59962036 3.3455658 46.67193604 C3.32049706 48.34712311 3.32049706 48.34712311 3.29492188 50.05615234 C3.27414078 51.20468689 3.25335968 52.35322144 3.23194885 53.53656006 C3.1665782 57.20448845 3.10762619 60.87248827 3.04882812 64.54052734 C3.00563105 67.02751389 2.96201638 69.51449322 2.91796875 72.00146484 C2.81090954 78.09774357 2.70911987 84.1940933 2.61132812 90.29052734 C3.60132813 90.29052734 4.59132813 90.29052734 5.61132812 90.29052734 C5.61132812 79.73052734 5.61132812 69.17052734 5.61132812 58.29052734 C19.03470583 75.06974947 19.03470583 75.06974947 18.13867188 85.75927734 C16.55370519 93.36711745 12.99695648 100.38216328 6.38476562 104.76708984 C2.0549402 107.16659062 -1.09308606 108.40927041 -6.06933594 108.34570312 C-6.87856506 108.33773712 -7.68779419 108.32977112 -8.52154541 108.32156372 C-9.13769714 108.31132172 -9.75384888 108.30107971 -10.38867188 108.29052734 C-10.45815869 95.20815056 -10.51147657 82.12581764 -10.54410839 69.04329395 C-10.55976941 62.96865639 -10.58101593 56.89414501 -10.61499023 50.81958008 C-10.6475677 44.9581395 -10.66552161 39.09682037 -10.6733036 33.23529625 C-10.67884998 30.99816666 -10.68968056 28.76104378 -10.70586205 26.52396584 C-10.72761451 23.39237692 -10.73063966 20.26129089 -10.72924805 17.12963867 C-10.74003387 16.20319046 -10.7508197 15.27674225 -10.76193237 14.32221985 C-10.73873687 9.50367237 -10.59624707 6.1600209 -7.38867188 2.29052734 C-4.27278834 0.21327165 -3.54444745 0.03476119 0 0 Z " fill="#E56073" transform="translate(30.388671875,9.70947265625)"/>
<path d="M0 0 C0.265625 2.3125 0.265625 2.3125 0 5 C-1.828125 6.625 -1.828125 6.625 -4.25 8 C-10.55770221 11.87557879 -14.36645581 16.67095784 -16.56919861 23.85687256 C-17.07005428 26.34850224 -17.16213699 28.68577739 -17.20532227 31.22753906 C-17.22526749 32.26831604 -17.24521271 33.30909302 -17.26576233 34.38140869 C-17.29083107 36.05659576 -17.29083107 36.05659576 -17.31640625 37.765625 C-17.33718735 38.91415955 -17.35796844 40.06269409 -17.37937927 41.24603271 C-17.44474993 44.91396111 -17.50370194 48.58196093 -17.5625 52.25 C-17.60569707 54.73698654 -17.64931175 57.22396587 -17.69335938 59.7109375 C-17.80041858 65.80721622 -17.90220825 71.90356595 -18 78 C-17.01 78 -16.02 78 -15 78 C-15 67.44 -15 56.88 -15 46 C-1.5766223 62.77922213 -1.5766223 62.77922213 -2.47265625 73.46875 C-4.05762294 81.07659011 -7.61437164 88.09163593 -14.2265625 92.4765625 C-18.55638793 94.87606328 -21.70441419 96.11874307 -26.68066406 96.05517578 C-27.48989319 96.04720978 -28.29912231 96.03924377 -29.13287354 96.03103638 C-29.74902527 96.02079437 -30.365177 96.01055237 -31 96 C-31.09330042 87.74962971 -31.16406552 79.49948538 -31.20724869 71.2487154 C-31.22799027 67.41618833 -31.25605657 63.58402614 -31.30175781 59.75170898 C-31.3457024 56.04284852 -31.36923763 52.33433563 -31.37950897 48.6252346 C-31.38681435 47.22084276 -31.40107578 45.81646667 -31.42292023 44.41222572 C-31.62464493 30.8881151 -29.45230849 18.01885825 -19.99609375 7.84375 C-14.49566044 2.56333402 -7.91583815 -2.54374125 0 0 Z " fill="#E14B76" transform="translate(51,22)"/>
<path d="M0 0 C5.90617667 3.41513617 9.30059216 8.89565807 11.296875 15.328125 C11.71146189 19.85019314 11.52253982 23.94933859 10.296875 28.328125 C-5.69887389 29.13689882 -5.69887389 29.13689882 -11.703125 24.328125 C-16.86065291 19.50896373 -20.5124199 15.01805788 -20.80859375 7.734375 C-20.82596319 5.26096684 -20.79104993 2.79979255 -20.703125 0.328125 C-21.363125 -0.001875 -22.023125 -0.331875 -22.703125 -0.671875 C-14.74970104 -3.93481816 -7.79285353 -3.4366 0 0 Z " fill="#E97372" transform="translate(71.703125,30.671875)"/>
<path d="M0 0 C6.24781876 4.32944488 10.76859903 10.10547481 12.328125 17.61328125 C13.45624655 25.31999924 11.74135219 31.22909823 7.328125 37.61328125 C2.11338494 43.64424149 -4.0024551 47.19821557 -12.01953125 47.78515625 C-13.90446978 47.79845388 -15.78968743 47.71594603 -17.671875 47.61328125 C-17.671875 46.62328125 -17.671875 45.63328125 -17.671875 44.61328125 C-17.0428125 44.5875 -16.41375 44.56171875 -15.765625 44.53515625 C-7.74371843 44.00358413 -1.82972632 42.27897883 3.703125 36.23828125 C8.15568177 30.52739322 9.12138395 24.70303311 8.328125 17.61328125 C6.39593691 11.61332877 3.66685823 6.50191668 -1.90234375 3.3515625 C-9.31399088 0.07664865 -15.72189452 -0.77448295 -23.359375 2.17578125 C-29.16450445 5.0631493 -32.87230841 9.36909345 -35.546875 15.23828125 C-38.54288458 24.56922676 -37.15812114 33.11089641 -32.765625 41.6640625 C-32.4046875 42.30730469 -32.04375 42.95054688 -31.671875 43.61328125 C-33.156875 44.10828125 -33.156875 44.10828125 -34.671875 44.61328125 C-35.331875 43.62328125 -35.991875 42.63328125 -36.671875 41.61328125 C-37.001875 51.51328125 -37.331875 61.41328125 -37.671875 71.61328125 C-38.661875 71.61328125 -39.651875 71.61328125 -40.671875 71.61328125 C-40.74818704 64.35423547 -40.80058484 57.09529388 -40.83666992 49.8359375 C-40.85171952 47.36845026 -40.8721639 44.9009896 -40.89819336 42.43359375 C-40.93474426 38.87883934 -40.95164018 35.32443986 -40.96484375 31.76953125 C-40.98032761 30.67338501 -40.99581146 29.57723877 -41.01176453 28.44787598 C-41.01385603 18.8440727 -38.93954617 11.2385489 -32.17578125 4.015625 C-23.08048862 -4.53352996 -10.88278256 -6.07450913 0 0 Z " fill="#EEE0E2" transform="translate(73.671875,28.38671875)"/>
<path d="M0 0 C1.4049404 3.89060419 0.69513239 7.23092362 0.0625 11.25 C-0.13214844 12.51328125 -0.32679687 13.7765625 -0.52734375 15.078125 C-0.68332031 16.04234375 -0.83929688 17.0065625 -1 18 C-1.33 18 -1.66 18 -2 18 C-2.05382106 15.37472811 -2.09358313 12.75055287 -2.125 10.125 C-2.14175781 9.37863281 -2.15851562 8.63226563 -2.17578125 7.86328125 C-2.1933959 5.90805539 -2.10320189 3.95257979 -2 2 C-1.34 1.34 -0.68 0.68 0 0 Z " fill="#EEEDED" transform="translate(35,46)"/>
<path d="M0 0 C1.32 1.65 2.64 3.3 4 5 C3.67 5.99 3.34 6.98 3 8 C2.77674186 10.05893621 2.59294241 12.12233653 2.4375 14.1875 C2.35371094 15.27417969 2.26992188 16.36085938 2.18359375 17.48046875 C2.12300781 18.31191406 2.06242187 19.14335938 2 20 C1.67 20 1.34 20 1 20 C0.67 13.4 0.34 6.8 0 0 Z " fill="#E2577B" transform="translate(36,68)"/>
<path d="M0 0 C2.31 0 4.62 0 7 0 C7.33 0.99 7.66 1.98 8 3 C5.36 3 2.72 3 0 3 C0 2.01 0 1.02 0 0 Z " fill="#EED5D8" transform="translate(56,73)"/>
<path d="M0 0 C-0.33 0.99 -0.66 1.98 -1 3 C-3.64 3 -6.28 3 -9 3 C-5.73209435 0.82139623 -3.91954654 0 0 0 Z " fill="#EEEDED" transform="translate(69,72)"/>
<path d="M0 0 C2.31 0 4.62 0 7 0 C6.34 1.65 5.68 3.3 5 5 C4.34 4.67 3.68 4.34 3 4 C3 3.34 3 2.68 3 2 C2.01 1.34 1.02 0.68 0 0 Z " fill="#E35A78" transform="translate(74,59)"/>
</svg>
